<svg width="40" height="33" viewBox="0 0 40 33" fill="none" xmlns="http://www.w3.org/2000/svg">
<path d="M40 3.84754C38.5277 4.50137 36.9463 4.94135 35.2863 5.1398C36.9817 4.12446 38.2816 2.51683 38.8939 0.599977C37.3093 1.53994 35.5525 2.22299 33.6818 2.59221C32.1849 0.996885 30.0527 0 27.6928 0C23.1606 0 19.4869 3.67524 19.4869 8.20584C19.4869 8.84889 19.5608 9.47656 19.6992 10.075C12.8795 9.73347 6.83358 6.4659 2.78451 1.49994C2.07992 2.7122 1.67532 4.12138 1.67532 5.62748C1.67532 8.47352 3.12296 10.9857 5.32441 12.4564C3.97985 12.4134 2.71374 12.0442 1.60763 11.4303C1.60763 11.4657 1.60763 11.498 1.60763 11.5334C1.60763 15.5102 4.43521 18.827 8.19045 19.5792C7.50279 19.7669 6.77666 19.8669 6.02746 19.8669C5.49979 19.8669 4.98442 19.8146 4.48444 19.7208C5.52902 22.9807 8.55967 25.3544 12.1503 25.4206C9.34272 27.622 5.80439 28.9343 1.95839 28.9343C1.29687 28.9343 0.643052 28.8958 0 28.8189C3.63217 31.1465 7.94431 32.5049 12.5795 32.5049C27.6743 32.5049 35.9263 20.0008 35.9263 9.15657C35.9263 8.8012 35.9186 8.44737 35.9032 8.09507C37.5078 6.93666 38.9 5.4921 40 3.84754Z" fill="white"/>
</svg>
