<svg width="44" height="36" viewBox="0 0 44 36" fill="none" xmlns="http://www.w3.org/2000/svg">
<path d="M44 4.26125C42.3805 4.98538 40.6409 5.47267 38.815 5.69246C40.6798 4.56794 42.1098 2.78745 42.7833 0.66449C41.0403 1.70552 39.1077 2.46202 37.05 2.87094C35.4034 1.10407 33.058 0 30.4621 0C25.4767 0 21.4356 4.07043 21.4356 9.08817C21.4356 9.80037 21.5169 10.4955 21.6692 11.1583C14.1675 10.7801 7.51694 7.16115 3.06296 1.66122C2.28791 3.00383 1.84285 4.56453 1.84285 6.23257C1.84285 9.38464 3.43525 12.167 5.85685 13.7958C4.37783 13.7481 2.98512 13.3392 1.76839 12.6594C1.76839 12.6986 1.76839 12.7343 1.76839 12.7735C1.76839 17.1779 4.87874 20.8513 9.0095 21.6845C8.25307 21.8924 7.45433 22.0031 6.63021 22.0031C6.04977 22.0031 5.48287 21.9452 4.93289 21.8413C6.08192 25.4517 9.41564 28.0806 13.3653 28.1539C10.277 30.5921 6.38483 32.0454 2.15423 32.0454C1.42656 32.0454 0.707357 32.0028 0 31.9176C3.99538 34.4955 8.73874 36 13.8375 36C30.4418 36 39.5189 22.1514 39.5189 10.1411C39.5189 9.74755 39.5105 9.35567 39.4936 8.9655C41.2586 7.68252 42.79 6.08263 44 4.26125Z" fill="white"/>
</svg>
